<?xml version="1.0" standalone="no"?>
<!DOCTYPE svg PUBLIC "-//W3C//DTD SVG 20010904//EN"
 "http://www.w3.org/TR/2001/REC-SVG-20010904/DTD/svg10.dtd">
<svg version="1.0" xmlns="http://www.w3.org/2000/svg"
 width="2048.000000pt" height="417.000000pt" viewBox="0 0 2048.000000 417.000000"
 preserveAspectRatio="xMidYMid meet">

<g transform="translate(0.000000,417.000000) scale(0.100000,-0.100000)"
fill="#FFFFFF" stroke="none">
<path d="M1615 3739 c-1007 -89 -1728 -974 -1585 -1946 83 -568 431 -1039 955
-1293 503 -244 1070 -239 1575 15 179 90 314 190 460 341 318 330 480 728 480
1179 -1 604 -319 1153 -847 1466 -85 50 -96 55 -238 115 -228 97 -546 146
-800 123z m430 -213 c155 -29 321 -88 470 -169 357 -194 628 -532 739 -922
140 -497 4 -1049 -352 -1426 -128 -137 -275 -246 -439 -328 -935 -467 -2059
87 -2238 1104 -24 134 -24 346 -1 490 105 642 629 1154 1291 1259 119 19 407
15 530 -8z"/>
<path d="M2541 3003 c-88 -36 -166 -114 -213 -214 -47 -99 -85 -220 -94 -298
l-7 -63 -22 68 c-58 183 -141 270 -300 315 -76 21 -368 19 -418 -4 -61 -27
-46 -43 83 -93 100 -39 122 -44 167 -40 52 6 81 -7 43 -19 -30 -9 -43 -40 -24
-56 12 -10 24 -9 62 4 59 21 73 22 44 1 -37 -26 -25 -57 25 -66 58 -10 93 -30
129 -74 35 -45 88 -135 104 -179 10 -28 8 -27 -32 16 -106 112 -226 159 -410
159 -108 0 -167 -26 -168 -72 0 -17 68 -53 158 -84 46 -15 46 -15 89 15 24 17
45 31 47 31 3 0 4 -21 3 -47 l-2 -48 60 -8 c33 -5 76 -12 95 -17 34 -9 153
-80 164 -99 3 -4 -17 -11 -45 -15 -113 -15 -215 -76 -243 -147 -27 -67 -9 -72
107 -29 33 12 57 28 57 36 0 8 9 14 20 14 11 0 37 11 58 25 20 13 52 27 70 31
28 6 32 4 32 -14 0 -18 -56 -167 -127 -337 -38 -90 -81 -200 -113 -292 -59
-162 -87 -213 -117 -213 -29 0 -130 140 -302 420 -39 63 -78 125 -87 137 -15
21 -15 23 -1 29 9 3 42 -6 74 -21 l58 -26 22 27 21 27 25 -50 c23 -45 32 -53
106 -86 95 -44 116 -41 108 14 -7 55 -79 197 -120 240 -54 55 -99 73 -189 72
-56 0 -85 -5 -104 -17 -39 -27 -39 -13 1 23 48 42 109 72 164 80 37 5 47 10
49 28 3 18 8 21 35 16 45 -7 132 27 132 52 0 29 -99 56 -204 56 -72 0 -91 -4
-140 -28 -51 -25 -110 -85 -146 -147 -7 -12 -10 19 -10 106 -1 105 -5 135 -28
209 -30 97 -89 193 -139 226 -40 26 -119 49 -141 40 -28 -11 -20 -39 35 -121
39 -58 61 -82 83 -88 17 -5 36 -11 43 -14 10 -3 6 -13 -13 -36 -26 -30 -27
-37 -22 -98 4 -36 9 -76 13 -89 7 -22 4 -22 -44 12 -28 19 -70 44 -94 55 -95
46 -288 82 -436 82 -121 0 -143 -27 -64 -78 45 -29 67 -54 116 -134 25 -42 53
-43 152 -9 49 17 90 31 92 31 3 0 -12 -18 -32 -40 -20 -22 -36 -44 -36 -50 0
-15 36 -30 72 -30 36 0 138 -43 138 -58 0 -5 -19 -3 -42 5 -24 8 -77 15 -118
16 -65 0 -83 -4 -135 -31 -119 -61 -245 -237 -245 -342 0 -74 24 -85 104 -49
55 24 64 40 42 74 -22 34 -21 52 3 31 23 -20 60 -18 74 5 7 12 3 26 -16 54
-15 22 -25 40 -23 42 2 2 20 -6 39 -17 45 -27 63 -21 110 34 30 36 46 46 87
55 94 20 132 10 68 -18 -49 -22 -139 -120 -173 -186 -26 -54 -29 -70 -30 -159
0 -82 3 -100 17 -110 14 -8 23 -5 48 19 48 46 89 113 83 136 -3 11 -2 19 3 18
23 -4 34 4 49 34 33 71 108 140 181 167 l25 10 -18 -25 c-10 -13 -21 -25 -25
-25 -14 0 -65 -114 -87 -191 -25 -88 -28 -204 -7 -254 23 -55 37 -47 89 47 20
36 55 89 77 117 55 70 64 96 45 134 -19 39 -19 39 11 25 36 -17 42 -2 36 89
-4 62 -2 75 9 71 12 -4 193 -269 372 -547 l59 -90 9 -107 c4 -59 12 -111 17
-116 6 -6 58 -8 116 -6 81 2 109 7 116 18 15 24 12 92 -9 177 -29 123 -17 175
99 438 80 182 158 377 177 440 20 66 26 71 52 39 29 -37 54 -129 48 -171 -8
-50 6 -80 42 -88 17 -4 31 -9 31 -12 0 -3 -11 -18 -25 -35 -14 -16 -25 -42
-25 -56 0 -41 27 -133 43 -150 13 -12 17 -11 36 10 12 12 37 52 54 88 39 79
48 177 23 263 -19 67 -92 151 -160 188 -26 13 -46 27 -46 30 0 7 52 19 82 19
11 0 46 -12 78 -26 42 -19 63 -36 81 -65 31 -50 63 -50 97 1 13 19 27 36 32
38 4 2 10 -34 12 -80 2 -54 10 -96 22 -121 24 -49 78 -107 99 -107 37 0 72
127 65 234 -9 129 -80 235 -197 293 -45 21 -74 28 -143 31 -49 2 -101 -1 -118
-6 -36 -13 -38 -7 -7 19 54 48 230 106 281 93 39 -10 63 4 80 46 9 22 19 40
24 40 4 0 19 -18 32 -40 l25 -39 113 -1 c141 0 151 11 76 78 -107 98 -284 137
-434 97 -30 -8 -56 -13 -58 -11 -6 6 33 77 72 131 20 27 36 58 36 68 0 11 -14
32 -30 47 -41 38 -24 45 34 14 32 -17 56 -24 72 -20 28 7 124 96 124 114 0 22
-74 93 -122 118 -62 32 -124 31 -207 -3z"/>
<path d="M8934 3366 c-114 -53 -174 -142 -174 -255 1 -87 23 -133 94 -198 147
-134 372 -102 474 67 28 48 32 62 32 129 0 93 -22 143 -91 205 -61 54 -121 76
-213 76 -53 0 -84 -6 -122 -24z"/>
<path d="M4152 3134 l3 -57 89 -18 c102 -21 170 -52 200 -92 21 -28 21 -32 24
-873 2 -769 1 -848 -14 -880 -24 -51 -79 -75 -199 -88 l-100 -11 -3 -58 -3
-57 581 0 580 0 0 60 c0 56 -2 60 -23 60 -40 0 -164 36 -200 59 -65 40 -67 56
-67 466 l0 365 43 0 44 0 169 -212 c215 -272 385 -499 498 -666 l89 -132 434
0 434 0 -3 57 -3 57 -66 12 c-154 28 -262 111 -463 354 -216 260 -676 837
-676 847 0 17 520 525 595 581 116 88 248 139 410 160 l60 7 3 58 3 57 -481 0
-480 0 0 -50 c0 -57 14 -70 78 -70 52 0 142 -28 149 -46 26 -68 -122 -259
-453 -585 -298 -293 -305 -299 -348 -299 l-37 0 3 403 c3 455 2 448 80 485 24
12 84 26 133 33 123 16 115 11 115 74 l0 55 -600 0 -601 0 3 -56z"/>
<path d="M13797 2994 c-4 -4 -7 -110 -7 -236 l0 -228 -139 0 -139 0 -7 -75
c-3 -41 -4 -79 0 -85 4 -6 58 -10 139 -10 l133 0 7 -537 c7 -486 10 -542 27
-597 35 -115 130 -207 248 -244 44 -13 92 -17 221 -17 177 0 201 5 388 73 l72
27 0 62 0 62 -135 -6 c-153 -7 -205 5 -249 58 -57 67 -59 90 -64 627 l-4 492
216 0 216 0 0 85 0 85 -215 0 -215 0 -2 233 -3 232 -241 3 c-132 1 -243 -1
-247 -4z"/>
<path d="M7406 2570 c-277 -31 -530 -165 -566 -301 -32 -117 35 -237 149 -269
46 -13 176 -13 222 0 57 16 102 51 127 100 28 55 28 101 1 201 -12 42 -19 85
-15 94 11 29 93 57 170 58 80 0 104 -9 159 -62 51 -48 66 -105 74 -273 l6
-138 -34 -14 c-19 -8 -83 -31 -144 -50 -60 -19 -189 -59 -285 -90 -276 -87
-379 -146 -449 -254 -65 -102 -80 -279 -32 -389 26 -59 114 -149 179 -182 97
-50 261 -65 397 -36 96 21 219 82 298 149 37 31 68 56 71 56 2 0 6 -10 10 -23
9 -36 71 -112 111 -137 118 -73 374 -76 566 -8 l64 23 3 56 3 56 -82 6 c-94 8
-134 26 -164 77 -19 34 -20 51 -20 520 0 479 0 486 -22 540 -62 152 -187 241
-383 275 -102 18 -318 25 -414 15z m318 -1002 l-6 -263 -41 -37 c-57 -51 -99
-70 -173 -76 -85 -6 -143 21 -182 86 -24 42 -27 56 -27 142 0 82 4 103 26 150
46 98 121 155 293 226 128 53 117 76 110 -228z"/>
<path d="M17246 2569 c-110 -14 -184 -37 -281 -84 -199 -98 -334 -259 -405
-480 -32 -99 -39 -308 -15 -426 44 -222 152 -383 326 -492 140 -87 277 -125
481 -134 204 -9 349 24 513 118 85 47 222 173 270 246 31 49 30 51 -38 100
l-44 32 -37 -49 c-46 -60 -154 -149 -221 -182 -78 -39 -147 -52 -249 -45 -152
10 -239 48 -319 137 -84 93 -132 230 -144 412 l-6 98 524 2 524 3 -2 105 c-4
203 -53 330 -173 450 -115 115 -238 168 -441 190 -109 11 -167 11 -263 -1z
m193 -137 c82 -44 129 -173 133 -366 l3 -111 -247 -3 -248 -2 0 39 c0 68 20
193 41 258 26 80 66 139 119 174 36 24 53 29 104 29 40 0 73 -6 95 -18z"/>
<path d="M19057 2569 c-96 -11 -197 -43 -302 -97 -112 -58 -240 -180 -303
-288 -124 -215 -146 -483 -59 -732 37 -107 82 -176 172 -267 166 -167 396
-244 695 -232 181 8 312 46 446 132 101 65 264 236 264 277 0 8 -23 31 -52 50
l-51 36 -33 -43 c-44 -57 -148 -149 -204 -179 -169 -92 -426 -67 -565 55 -51
45 -110 151 -134 239 -18 63 -40 221 -41 282 0 17 33 18 523 20 l522 3 -1 112
c-2 221 -72 377 -225 496 -149 115 -394 166 -652 136z m200 -139 c84 -51 126
-169 127 -360 l1 -115 -247 -3 -247 -2 5 72 c16 221 76 359 179 412 44 23 142
21 182 -4z"/>
<path d="M12534 2550 c-116 -30 -191 -75 -328 -197 -26 -24 -52 -43 -57 -43
-5 0 -9 49 -9 109 0 81 -4 111 -14 120 -21 18 -725 -22 -737 -41 -5 -7 -9 -31
-9 -53 l0 -41 56 -12 c80 -16 138 -54 171 -110 l28 -47 3 -475 c2 -261 0 -494
-3 -518 -11 -72 -47 -102 -146 -122 l-84 -17 0 -49 0 -49 468 -3 467 -2 0 53
0 54 -60 16 c-74 21 -118 59 -130 112 -5 22 -10 232 -10 467 l0 427 56 60 c38
41 77 71 122 93 61 30 75 33 158 33 88 0 94 -1 130 -31 103 -83 105 -100 102
-653 l-3 -451 -26 -25 c-19 -19 -44 -29 -92 -38 l-67 -11 0 -53 0 -53 463 2
462 3 0 49 0 49 -60 17 c-79 22 -121 44 -142 77 -16 25 -18 72 -23 518 -6 474
-7 492 -28 549 -58 155 -161 253 -309 291 -82 21 -259 19 -349 -5z"/>
<path d="M16005 2559 c-111 -14 -244 -89 -350 -198 -27 -28 -53 -51 -57 -51
-4 0 -8 52 -8 115 0 111 -1 115 -22 120 -13 3 -180 -3 -372 -14 -263 -15 -351
-23 -357 -33 -5 -7 -9 -32 -9 -54 l0 -41 58 -12 c106 -21 169 -74 192 -162 7
-25 10 -213 8 -527 -3 -446 -5 -490 -21 -515 -26 -41 -58 -57 -137 -70 -39 -7
-71 -15 -71 -19 1 -5 1 -28 1 -53 l0 -45 516 0 515 0 -3 52 -3 53 -97 17 c-55
9 -112 25 -131 37 -63 38 -62 31 -65 529 -3 447 -2 453 18 482 41 58 194 150
249 150 17 0 18 -7 14 -84 -7 -111 1 -149 43 -196 47 -51 123 -80 212 -80 83
0 134 22 185 79 57 63 77 118 77 210 0 99 -20 158 -76 220 -71 78 -172 108
-309 90z"/>
<path d="M8915 2530 c-165 -10 -308 -19 -317 -19 -15 -1 -18 -11 -18 -55 l0
-54 68 -16 c91 -23 146 -57 177 -110 l26 -44 -3 -515 -3 -515 -25 -27 c-32
-35 -71 -51 -142 -60 l-58 -7 0 -54 0 -54 485 0 485 0 0 53 0 54 -52 12 c-70
15 -127 49 -155 90 l-23 34 0 641 c0 486 -3 645 -12 654 -15 15 -53 14 -433
-8z"/>
<path d="M9780 2279 l0 -250 51 3 51 3 32 90 c61 170 95 217 169 241 72 23
524 34 511 13 -10 -18 -666 -970 -785 -1141 -86 -123 -89 -129 -89 -183 l0
-55 760 0 760 0 0 285 0 285 -55 0 -54 0 -17 -57 c-33 -116 -97 -265 -127
-300 -49 -56 -81 -64 -287 -75 -157 -8 -370 -4 -370 7 0 2 198 292 440 645
433 632 440 643 440 691 l0 49 -715 0 -715 0 0 -251z"/>
</g>
</svg>
